<?xml version="1.0" encoding="UTF-8" standalone="no"?>
<!-- Created with Inkscape (http://www.inkscape.org/) -->

<svg
   width="512"
   height="512"
   viewBox="0 0 512 512"
   version="1.1"
   id="svg1"
   inkscape:version="1.3 (0e150ed, 2023-07-21)"
   sodipodi:docname="anyplotlib.svg"
   xmlns:inkscape="http://www.inkscape.org/namespaces/inkscape"
   xmlns:sodipodi="http://sodipodi.sourceforge.net/DTD/sodipodi-0.dtd"
   xmlns="http://www.w3.org/2000/svg"
   xmlns:svg="http://www.w3.org/2000/svg">
  <sodipodi:namedview
     id="namedview1"
     pagecolor="#ffffff"
     bordercolor="#000000"
     borderopacity="0.25"
     inkscape:showpageshadow="2"
     inkscape:pageopacity="0.0"
     inkscape:pagecheckerboard="0"
     inkscape:deskcolor="#d1d1d1"
     inkscape:document-units="px"
     inkscape:zoom="0.49936283"
     inkscape:cx="260.33175"
     inkscape:cy="412.5257"
     inkscape:window-width="1312"
     inkscape:window-height="431"
     inkscape:window-x="0"
     inkscape:window-y="25"
     inkscape:window-maximized="0"
     inkscape:current-layer="layer1" />
  <defs
     id="defs1" />
  <g
     inkscape:label="Layer 1"
     inkscape:groupmode="layer"
     id="layer1">
    <path
       d="m 284.5285,359.05107 c 0,0 -22.57151,50.23263 -25.48415,52.63869 -1.67125,1.38057 -14.59204,-18.56375 -16.28005,-17.28646 -32.23952,24.39504 -39.61421,23.07159 -61.24112,21.77519 -14.94671,-0.89596 -28.72218,-8.71274 -40.22392,-19.99747 -11.50174,-11.50174 -17.25261,-25.82466 -17.25261,-42.96877 0,-23.22049 9.98264,-44.05384 29.94793,-62.50003 19.96529,-18.6632 63.47659,-43.40279 130.53392,-74.21878 v -30.59898 c 0,-23.00348 -1.30208,-37.43491 -3.90625,-43.29429 -2.38716,-6.07639 -7.05296,-11.28473 -13.99741,-15.62501 -6.94445,-4.55729 -14.75695,-6.83594 -23.43751,-6.83594 -14.10591,0 -25.71615,3.1467 -34.83074,9.44011 -5.64237,3.90625 -8.46355,8.46355 -8.46355,13.67188 0,4.55729 3.0382,10.19966 9.11459,16.92709 8.24653,9.33161 12.36979,18.33769 12.36979,27.01825 0,10.63369 -4.01476,19.74827 -12.04427,27.34376 -7.81251,7.37847 -18.12067,11.06771 -30.9245,11.06771 -13.67188,0 -25.17362,-4.12326 -34.50522,-12.36979 -9.11459,-8.24653 -13.67188,-17.90366 -13.67188,-28.97137 0,-15.62501 6.1849,-30.49047 18.55469,-44.59638 12.3698,-14.32292 29.62241,-25.28213 51.75784,-32.87762 22.13543,-7.595489 45.13891,-11.393233 69.01045,-11.393233 28.86286,0 51.64933,6.184893 68.35941,18.554693 16.92709,12.15279 27.8863,25.39064 32.87762,39.71356 3.03819,9.11459 4.55729,30.05645 4.55729,62.82556 v 118.16412 c 0,13.88889 0.54254,22.67796 1.62761,26.3672 1.08507,3.47222 2.71267,6.07639 4.88281,7.8125 2.17014,1.73611 4.6658,2.60417 7.48699,2.60417 5.64236,0 11.39323,-4.01476 17.25261,-12.04428 l 9.76563,7.81251 c -10.8507,16.05903 -22.13543,27.77779 -33.85418,35.15626 -11.50175,7.16147 -24.63109,10.7422 -39.38804,10.7422 -17.36112,0 -30.9245,-4.01476 -40.69013,-12.04428 -9.76563,-8.24653 -17.90365,-42.01277 -17.90365,-42.01277 z m -0.5349,-1.22514 0.5349,-119.52259 c -26.25869,15.40799 -50.03968,27.00257 -71.97817,44.82375 -13.51273,10.97674 -29.7196,21.54092 -36.10736,37.73596 -6.05289,15.34603 -7.29226,34.99568 0.59194,49.48628 5.84939,10.75075 18.49999,18.39301 30.58783,20.31087 9.10991,1.44539 26.6582,-7.42005 26.6582,-7.42005 l -14.8903,-18.77904 z"
       id="text1"
       style="font-weight:bold;font-size:666.667px;line-height:600px;font-family:'Times New Roman';-inkscape-font-specification:'Times New Roman,  Bold';letter-spacing:-0.07px;word-spacing:1.06px;opacity:0.621359;stroke-width:1.88976;stroke-linecap:round;stroke-linejoin:round;stroke-miterlimit:2.4;paint-order:fill markers stroke"
       aria-label="a"
       sodipodi:nodetypes="ccsacsccsccscscscscscssccsscsscccsccccaaaaccc" />
  </g>
</svg>
